<svg width="20" height="20" viewBox="0 0 20 20" fill="none" xmlns="http://www.w3.org/2000/svg">
<path d="M10 18.3333C5.39765 18.3333 1.66669 14.6023 1.66669 9.99999C1.66669 5.39761 5.39765 1.66666 10 1.66666C14.6024 1.66666 18.3334 5.39761 18.3334 9.99999C18.3334 14.6023 14.6024 18.3333 10 18.3333ZM10 16.6667C13.6819 16.6667 16.6667 13.6819 16.6667 9.99999C16.6667 6.31809 13.6819 3.33332 10 3.33332C6.31812 3.33332 3.33335 6.31809 3.33335 9.99999C3.33335 13.6819 6.31812 16.6667 10 16.6667ZM9.16669 12.5H10.8334V14.1667H9.16669V12.5ZM10.8334 11.1292V11.6667H9.16669V10.4167C9.16669 9.95641 9.53977 9.58332 10 9.58332C10.6904 9.58332 11.25 9.02366 11.25 8.33332C11.25 7.64297 10.6904 7.08332 10 7.08332C9.3936 7.08332 8.88802 7.51518 8.77402 8.08813L7.13945 7.76121C7.40533 6.42432 8.58502 5.41666 10 5.41666C11.6109 5.41666 12.9167 6.72249 12.9167 8.33332C12.9167 9.65457 12.0381 10.7707 10.8334 11.1292Z" fill="#8E4EC6"/>
</svg>
