<svg width="20" height="20" viewBox="0 0 20 20" fill="none" xmlns="http://www.w3.org/2000/svg">
<path d="M10 18.3334C5.39765 18.3334 1.66669 14.6024 1.66669 10C1.66669 5.39765 5.39765 1.66669 10 1.66669C14.6024 1.66669 18.3334 5.39765 18.3334 10C18.3334 14.6024 14.6024 18.3334 10 18.3334ZM10 16.6667C13.6819 16.6667 16.6667 13.6819 16.6667 10C16.6667 6.31812 13.6819 3.33335 10 3.33335C6.31812 3.33335 3.33335 6.31812 3.33335 10C3.33335 13.6819 6.31812 16.6667 10 16.6667ZM9.16669 12.5H10.8334V14.1667H9.16669V12.5ZM9.16669 5.83335H10.8334V10.8334H9.16669V5.83335Z" fill="#FFFCFC"/>
</svg>
